<svg width="196" height="143" viewBox="0 0 196 143" fill="none" xmlns="http://www.w3.org/2000/svg">
<g clip-path="url(#clip0_2:2)">
<g clip-path="url(#clip1_2:2)">
<path d="M181.18 71.68C181.18 71.68 184.18 123.14 127.9 128.28L113.4 128.79V44.22L97.23 69.5V143H126.78C197.78 138.29 196.4 71.68 196.4 71.68C196.4 71.68 198.7 16.87 145.9 3.26C145.253 3.01854 144.583 2.84429 143.9 2.74C141.49 2.35 143.84 2.38 141.23 2.14L132.42 15.61C133.99 15.75 139.78 17.04 141.23 17.41C183.32 28.1 181.23 71.68 181.23 71.68" fill="#C25455"/>
<path d="M0.0499992 0.00999928H128.2C128.2 0.00999928 129.11 -0.0399992 132.87 0.160001C134.192 0.21355 135.5 0.445653 136.76 0.849999L127.82 14.73H69.59V43.87H109.53L95.93 65.01L88.45 58.01H68.75V142.66L53.97 134.29V58H28.05L19.83 43.87H53.96V14.73H7.96L0.0499992 0.00999928Z" fill="#515151"/>
</g>
</g>
<defs>
<clipPath id="clip0_2:2">
<rect width="196" height="143" fill="white"/>
</clipPath>
<clipPath id="clip1_2:2">
<rect width="196.41" height="143" fill="white"/>
</clipPath>
</defs>
</svg>
